<?xml version="1.0" encoding="UTF-8"?>
<svg id="Layer_2" data-name="Layer 2" xmlns="http://www.w3.org/2000/svg" xmlns:xlink="http://www.w3.org/1999/xlink" viewBox="0 0 844.36 218.11">
  <defs>
    <linearGradient id="linear-gradient" x1="129.39" y1="111.27" x2="246.82" y2="111.27" gradientUnits="userSpaceOnUse">
      <stop offset="0" stop-color="#f4e09c"/>
      <stop offset="1" stop-color="#c3922e"/>
    </linearGradient>
    <linearGradient id="linear-gradient-2" x1="199.95" y1="93.03" x2="-1.94" y2="125.94" gradientUnits="userSpaceOnUse">
      <stop offset="0" stop-color="#d9b560"/>
      <stop offset=".07" stop-color="#dbb965"/>
      <stop offset=".16" stop-color="#e2c475"/>
      <stop offset=".27" stop-color="#eed790"/>
      <stop offset=".3" stop-color="#f4e09c"/>
      <stop offset=".49" stop-color="#e8cd8a"/>
      <stop offset=".69" stop-color="#e0bf7c"/>
      <stop offset=".74" stop-color="#d8b368"/>
      <stop offset=".85" stop-color="#cca148"/>
      <stop offset=".94" stop-color="#c59635"/>
      <stop offset="1" stop-color="#c3922e"/>
    </linearGradient>
  </defs>
  <g id="Layer_1-2" data-name="Layer 1">
    <g>
      <g>
        <path d="m75.14,116.3c.23-23.54,2.68-20.19-20.44-20.04v-.02c-5.81,1.05-16.39-2.21-20.37,1.46,1.86,21.46-7.39,23.31,14.67,21.83,5.51-2.19,23.88.59,26.14-3.23Z" fill="#cda349"/>
        <path d="m117.87,39.77c2.74,2.16,5.67,5.14,9.16,5.8,2.32.15,6.97-4.33,5.05-6.55-2.99-2.2-6.36-3.7-9.78-4.68-1.38,1.23-7.32,3.62-4.43,5.43Z" fill="#cda349"/>
        <path d="m79.27,92.51c3.19.31,4.36-2.39,5.07-5.21,2.9-5.09,4.73-10.83,7.16-16.14,1.3-4.33-6.65-1.19-9.11-2.4-8.8-.75-17.94-1.6-26.75-1.16-5.62,6.06-11,13.94-11.39,22.3,10.97,3.81,23.68-.05,35.03,2.61Z" fill="#cda349"/>
        <path d="m86.21,159.68c3.51-.68,7.61-.96,10.82-2.8,2.55-2.35,2.42-8.92-2.31-7.74,0-.02,0-.03,0-.05-6.65.78-13.11,2.05-19.67,3.04-4.08.41-7.98,1.18-12,1.78-1.57,1-4.3-.25-5.19,1.63-1.11,2.88-3.55,7.15-1.89,10.1,5.58-.64,11.23-2.42,16.75-3.12,4.37-1.31,9.21-1.59,13.49-2.85Z" fill="#cda349"/>
        <path d="m91.77,146.88s0-.03,0-.04c1.24-.06,2.52.2,3.7-.25-3.67-6.54-7.53-13.09-9.75-20.39-2.42-7.43-1.72-6.36-9.39-5.08-10.56.33-22.23.18-32.09,2.22,1.42,9.58,4.08,23.28,13.69,27.89,11.29-.36,22.53-3.6,33.83-4.35Z" fill="#cda349"/>
        <path d="m99.63,45.53c7.09,1.56,14.1,2.69,21.54,2.69,3.32,0-5.4-5.27-6.45-5.85-2.92-1.36-6.59-.19-9.8-.56v.03c-5.79-.22-18.81.02-5.29,3.68Z" fill="#cda349"/>
        <path d="m66.8,54.64c-9.42-.15-17.71-5.55-10.52,8.07,5.86,2.08,12.74.47,18.96.95v.1c5.38,0,10.76.02,16.14,0,2.37.05.8-4.27,1.37-5.78-8.33-2.18-17.28-2.32-25.95-3.33Z" fill="#cda349"/>
        <path d="m54.26,48.56c3.64.09,7.01,1.56,10.61,1.55,8.51,1.09,16.66,3.02,25.16,3.73v.03c3.13.61,5.36-1.58,6.87-4.04,1.28-2.55-6.33-3.39-7.89-4.25-6.07-.4-9.2-5.92-12.32-10.48-2.95-3.21-16.98,6.68-19.82,9.51-.75.86-5.04,3.16-2.61,3.95Z" fill="#cda349"/>
        <path d="m120.52,168.77v.02c-6.77-.53-17.8,2.69-24.13,3.99-3.43.7,20.52,3.13,26.98.43,4-1.67,8.34-4.15-2.85-4.44Z" fill="#cda349"/>
        <path d="m106.51,166.53c-3.17-2.15-5.28-5.51-8.9-6.99-4.08,2.28-8.79,3.17-13.16,4.17-5.81,1.89-11.73,2.86-17.62,4.3-2.43.96-5.19,1.15-7.5,1.97,2.06,5.88,9.89,10.03,15.59,11.81,7.16,4.96,7.45-8.81,15.26-10.04,5.26-1.58,10.85-2.71,16.22-4.49.42-.17.52-.41.12-.73Z" fill="#cda349"/>
        <path d="m135.26,167.98c-3.36,2.07-12.6,6.98-9.52,11.72.94,1.01,1.49,3.69,3.29,2.83,4.59-1.49,8.81-3.62,11.36-8.05.82-1.23-3.74-6.58-5.12-6.5Z" fill="#cda349"/>
      </g>
      <path d="m238.46,71.43c-10.31-27.45-35.19-48.61-62.5-57.74-1.14-.89-2.63-1.24-3.91-1.68-.44-.9-1.7-.17-2.24-.7-3.26-1.41-6.88-2.62-10.42-3.03-5.45-1.25-12.17-3.4-17.55-1.65,67.23,25.1,86.59,118.05,42.64,171.93-28.28,40.32-88.5,38.17-31.24,37.89h0c11.31-.3,19.99.94,27.99-1.44,26.17-7.77,47.7-30.05,57.38-55.7,11.37-27.06,10.54-60.21-.15-87.89Z" fill="url(#linear-gradient)"/>
      <path d="m193.95,58.8C158.21-13.14,61.77-19.51,18.9,49.2c-44.89,67.18,1.69,167.26,84.69,167.17,78.32.18,125.68-90.07,90.35-157.57Zm-29.77,64.09c-2.72-.31-1.56,1.66-2.1,6.51-.14,1.23,0,1.24-1.29,5.52-1.96,6.49-4.82,13.95-10.38,18.76-.7,2.54,2.55,5.39,3.49,7.93,5.67,7.96-7.66,10.32-11.28,15.55-3.53,4.48-8.56,7.06-13.79,8.91-3.47.79-5.52-4.41-6.84-6.93-3.22-3.02-9.8-.5-14.15-1.35-6.15-.91-12.41-1.29-18.67-1.46-3.87,1.71-4.41,8.35-9.04,9.5-9.75-.16-19.53-6.34-25.43-14.46-4.02-4.16-2.19-10.64-.57-15.33,1.8-3.49-4.65-6.18-5.99-9.37-3.92-6.74-6.05-14.27-7.06-21.85-.07-1.18-.32-1.4-1.46-1.39-13.34,1.59-6.97-4.49-8.32-15.19h-.01c0-4.48,0-8.97,0-13.45-.12-3.14,5.04-1.1,7.06-1.7,4.26-.35,1.91-6.13,3.52-8.86,1.5-6.1,5.28-11.81,9.33-16.78,7.3-11.6-19.86-16.44,20.01-35.46,7.9-5.3,8.89,5.13,13.86,8.69,1.46.31,3.09.11,4.68-.24,2.51-.55,5.07-.88,7.64-.9,1.78-.01,3.57-.05,5.32-.33,1.24-.2,2.49-.34,3.74-.35,5.96-.04,5.95-.26,10.95-5.25,4.15-6.03,10.59-.27,15.42,1.99,4.66,1.8,8.55,5.82,12.38,9.01,2.16,1.91,6.01,3.55,6.79,6.24-8.36,17.19-7.19,4.36,4.6,22.14,11.8,20.14-1.33,19.83,16.34,18.55,1.17-.03,1.32.13,1.34,1.33.49,9.47.79,18.92.7,28.41,1.24,2.35-9.31,1.77-10.77,1.61Z" fill="url(#linear-gradient-2)"/>
      <path d="m207.72,28.13c-14.7-10.81-31.18-17.73-48.76-21.85-6.18-1.44-15.47-2.68-21.67-3.3-6.69-.67-9.29-1.3-15.87-2.09C61.06-6.32,12.03,31.05,2.48,85.27c-10.32,47.48,12.24,100.57,56.39,122.25,23.64,12.96,51.22,10.14,77.47,10.29h0c14.53-.89,29.8,1.78,44.06-.98,2.24-.43,4.42-1.12,6.51-2.05,22.66-10.02,41.84-28.1,52.13-50.73,18.55-45.3,10.27-105.95-31.32-135.92Zm-104.12,188.24c-83,.09-129.59-99.99-84.69-167.17C61.77-19.51,158.21-13.14,193.95,58.8c35.33,67.5-12.03,157.75-90.35,157.57Zm135.02-57.05c-9.68,25.64-31.21,47.92-57.38,55.7-8.01,2.38-16.68,1.14-27.99,1.43h0c-57.27.29,2.96,2.43,31.24-37.88,43.95-53.88,24.59-146.83-42.64-171.93,5.38-1.75,12.1.4,17.55,1.65,3.55.41,7.16,1.62,10.42,3.03.54.52,1.8-.2,2.24.7,1.28.44,2.77.79,3.91,1.68,27.31,9.13,52.19,30.3,62.5,57.74,10.69,27.68,11.52,60.83.15,87.89Z" fill="#261b09"/>
      <path d="m174.95,121.28c.09-9.49-.2-18.95-.7-28.41-.03-1.2-.18-1.36-1.34-1.33-17.67,1.29-4.54,1.59-16.34-18.55-11.79-17.78-12.96-4.95-4.6-22.14-.78-2.69-4.63-4.33-6.79-6.24-3.83-3.19-7.72-7.21-12.38-9.01-4.82-2.25-11.27-8.02-15.42-1.99-4.99,4.98-4.99,5.21-10.95,5.25-1.25,0-2.5.15-3.74.35-1.75.28-3.53.31-5.32.33-2.57.02-5.13.35-7.64.9-1.59.35-3.22.56-4.68.24-4.97-3.56-5.96-14-13.86-8.69-39.87,19.02-12.71,23.86-20.01,35.46-4.06,4.98-7.83,10.68-9.33,16.78-1.61,2.73.74,8.51-3.52,8.86-2.02.6-7.18-1.44-7.06,1.7,0,4.48,0,8.97,0,13.45h.01c1.35,10.7-5.02,16.78,8.32,15.19,1.14,0,1.4.21,1.46,1.39,1.01,7.58,3.13,15.11,7.06,21.85,1.33,3.19,7.79,5.88,5.99,9.37-1.62,4.69-3.45,11.17.57,15.33,5.89,8.11,15.68,14.3,25.43,14.46,4.63-1.15,5.17-7.79,9.04-9.5,6.26.17,12.52.55,18.67,1.46,4.35.85,10.93-1.67,14.15,1.35,1.32,2.52,3.37,7.72,6.84,6.93,5.23-1.84,10.26-4.43,13.79-8.91,3.61-5.24,16.95-7.59,11.28-15.55-.94-2.54-4.19-5.39-3.49-7.93,5.56-4.81,8.42-12.27,10.38-18.76,1.29-4.28,1.15-4.29,1.29-5.52.54-4.85-.62-6.82,2.1-6.51,1.46.17,12.01.74,10.77-1.61Zm-52.64-86.95c3.41.99,6.79,2.48,9.78,4.68,1.92,2.22-2.73,6.69-5.05,6.55-3.49-.66-6.42-3.64-9.16-5.8-2.89-1.81,3.05-4.2,4.43-5.43Zm-17.38,7.51v-.03c3.21.37,6.87-.8,9.8.56,1.05.57,9.77,5.85,6.45,5.85-7.44,0-14.45-1.13-21.54-2.69-13.51-3.66-.5-3.91,5.29-3.68Zm-48.06,2.77c2.84-2.83,16.87-12.72,19.82-9.51,3.12,4.56,6.25,10.08,12.32,10.48,1.56.85,9.17,1.7,7.89,4.25-1.52,2.46-3.75,4.64-6.87,4.04v-.03c-8.5-.71-16.65-2.64-25.16-3.73-3.59.01-6.97-1.46-10.61-1.55-2.43-.79,1.86-3.09,2.61-3.95Zm34.52,19.14c-5.38.02-10.76,0-16.14,0v-.1c-6.22-.48-13.11,1.14-18.96-.95-7.19-13.63,1.1-8.22,10.52-8.07,8.67,1.01,17.62,1.16,25.95,3.33-.57,1.51,1,5.83-1.37,5.78Zm-35.77,3.84c8.82-.44,17.95.41,26.75,1.16,2.47,1.21,10.41-1.93,9.11,2.4-2.43,5.31-4.26,11.06-7.16,16.14-.71,2.82-1.87,5.52-5.07,5.21-11.36-2.66-24.06,1.21-35.03-2.61.38-8.36,5.77-16.24,11.39-22.3Zm-21.28,30.1c3.98-3.66,14.56-.41,20.37-1.46v.02c23.12-.14,20.67-3.5,20.44,20.04-2.26,3.82-20.63,1.04-26.14,3.23-22.06,1.48-12.81-.37-14.67-21.83Zm9.91,25.63c9.85-2.04,21.53-1.89,32.09-2.22,7.67-1.28,6.97-2.34,9.39,5.08,2.22,7.3,6.08,13.85,9.75,20.39-1.18.45-2.47.2-3.7.25,0,.01,0,.03,0,.04-11.31.75-22.55,3.98-33.83,4.35-9.61-4.61-12.27-18.32-13.69-27.89Zm11.73,42.32c-1.66-2.95.78-7.22,1.89-10.1.89-1.88,3.62-.64,5.19-1.63,4.01-.59,7.92-1.36,12-1.78,6.56-.99,13.02-2.27,19.67-3.04,0,.02,0,.03,0,.05,4.73-1.18,4.86,5.39,2.31,7.74-3.21,1.84-7.32,2.12-10.82,2.8-4.28,1.26-9.12,1.54-13.49,2.85-5.52.7-11.17,2.48-16.75,3.12Zm18.95,16.14c-5.69-1.79-13.53-5.93-15.59-11.81,2.31-.81,5.07-1.01,7.5-1.97,5.89-1.44,11.81-2.41,17.62-4.3,4.37-1.01,9.08-1.89,13.16-4.17,3.62,1.49,5.72,4.84,8.9,6.99.4.32.31.56-.12.73-5.37,1.78-10.96,2.91-16.22,4.49-7.81,1.23-8.09,15-15.26,10.04Zm21.46-9.01c6.34-1.3,17.36-4.51,24.13-3.99v-.02c11.19.29,6.85,2.77,2.85,4.44-6.47,2.7-30.41.27-26.98-.43Zm44,1.7c-2.55,4.43-6.76,6.56-11.36,8.05-1.8.86-2.34-1.82-3.29-2.83-3.08-4.74,6.16-9.64,9.52-11.72,1.39-.09,5.94,5.27,5.12,6.5Zm21.45-53.32c-1.18,0-1.15.04-1.2,1.18-1.03,10.26-3.52,20.59-11.24,28.04-4.13,2.63-.05,7.2,1.37,10.39.85,2.62,3.97,4.65.27,6.63-11.72,7.9-6.89,1.18-14.87-2.36-7.4,1.23-15.25.6-22.7,2.01-5.32-.96-8.9-5.7-13.16-8.84-1.12-2.91.28-6.43-1.03-9.51-2.87-6.56-7.89-12.66-10.42-19.47-.18-1.69-1.44-3.11-1.65-4.92-.14-.61.06-1.32-.62-1.73-.43-1.65-.42-4.88-2.51-5.16-1.86-.57-6.75,1.38-6.78-1.24-.28-3.2-.03-6.26-.54-9.45-2-24.34,5.85-1.37,11.15-20.02,1.45-4.07,3.42-8.12,4.92-12.3.75-1.74,1.61-3.33,2.05-5.25,2.13-3.59.48-8.07.21-12.1.09-3.14,3.49-4.26,4.36-7.1.84-2.58,3.07-1.66,5.01-1.46,8.1.26,17.5,2.26,25.2-.23,2.76-1,4.46-8.4,7.48-6.91,3.65,2.85,7.15,5.48,10.66,8.47,2.41,3.05-2.21,7.16-3.76,9.8-.11,1.11-1.75,2.17-.09,3.26,9.76,7.27,14.79,18.52,16.71,30.2.05.73.78,1.55,1.52,1.56,15.21-1.65,9.45.34,10.53,12.97.01,0,.03,0,.04,0-.44,11.93,3.47,14.71-10.91,13.55Z" fill="#261b09"/>
      <path d="m172.74,107.61s-.03,0-.04,0c-1.08-12.62,4.68-14.61-10.53-12.97-.74,0-1.47-.82-1.52-1.56-1.92-11.68-6.95-22.93-16.71-30.2-1.66-1.08-.02-2.14.09-3.26,1.55-2.64,6.18-6.75,3.76-9.8-3.52-2.99-7.01-5.62-10.66-8.47-3.02-1.49-4.73,5.91-7.48,6.91-7.7,2.49-17.1.49-25.2.23-1.93-.2-4.16-1.12-5.01,1.46-.87,2.84-4.26,3.95-4.36,7.1.28,4.03,1.92,8.51-.21,12.1-.43,1.92-1.3,3.51-2.05,5.25-1.5,4.17-3.47,8.22-4.92,12.3-5.3,18.65-13.15-4.32-11.15,20.02.51,3.19.26,6.25.54,9.45.03,2.63,4.92.67,6.78,1.24,2.09.27,2.08,3.51,2.51,5.16.68.42.47,1.12.62,1.73.21,1.81,1.47,3.23,1.65,4.92,2.53,6.81,7.55,12.91,10.42,19.47,1.31,3.09-.1,6.6,1.03,9.51,4.26,3.14,7.84,7.88,13.16,8.84,7.45-1.41,15.31-.78,22.7-2.01,7.98,3.54,3.15,10.26,14.87,2.36,3.69-1.98.58-4-.27-6.63-1.42-3.19-5.5-7.77-1.37-10.39,7.72-7.46,10.2-17.79,11.24-28.04.05-1.14.03-1.17,1.2-1.18,14.38,1.16,10.47-1.62,10.91-13.55Z" fill="none"/>
    </g>
    <g>
      <text transform="translate(279.34 75.83)" fill="#261b09" font-family="OpenSansRoman-SemiBold, &apos;Open Sans&apos;" font-size="64.4" font-variation-settings="&apos;wght&apos; 600, &apos;wdth&apos; 100" font-weight="600" letter-spacing=".04em"><tspan x="0" y="0">Ingenjörsfirman</tspan></text>
      <text transform="translate(275.27 179.55)" fill="#261b09" font-family="OpenSansRoman-Bold, &apos;Open Sans&apos;" font-size="110.02" font-variation-settings="&apos;wght&apos; 700, &apos;wdth&apos; 100" font-weight="700" letter-spacing="-.01em"><tspan x="0" y="0">HELFER AB</tspan></text>
      <text/>
    </g>
  </g>
</svg>