<svg width="869" height="218" viewBox="0 0 869 218" fill="none" xmlns="http://www.w3.org/2000/svg">
<g clip-path="url(#clip0_608_73)">
<path d="M75.1395 116.3C75.3695 92.7601 77.8195 96.1101 54.6995 96.2601V96.24C48.8895 97.29 38.3095 94.03 34.3295 97.7C36.1895 119.16 26.9395 121.01 48.9995 119.53C54.5095 117.34 72.8795 120.12 75.1395 116.3Z" fill="#CDA349"/>
<path d="M117.87 39.7698C120.61 41.9298 123.54 44.9098 127.03 45.5698C129.35 45.7198 134 41.2398 132.08 39.0198C129.09 36.8198 125.72 35.3198 122.3 34.3398C120.92 35.5698 114.98 37.9598 117.87 39.7698Z" fill="#CDA349"/>
<path d="M79.27 92.5101C82.46 92.8201 83.63 90.1201 84.34 87.3001C87.24 82.2101 89.07 76.4701 91.5 71.1601C92.8 66.8301 84.85 69.9701 82.39 68.7601C73.59 68.0101 64.45 67.1601 55.64 67.6001C50.02 73.6601 44.64 81.5401 44.25 89.9001C55.22 93.7101 67.93 89.8501 79.28 92.5101H79.27Z" fill="#CDA349"/>
<path d="M86.21 159.68C89.72 159 93.82 158.72 97.03 156.88C99.58 154.53 99.45 147.96 94.72 149.14C94.72 149.12 94.72 149.11 94.72 149.09C88.07 149.87 81.61 151.14 75.05 152.13C70.97 152.54 67.07 153.31 63.05 153.91C61.48 154.91 58.75 153.66 57.86 155.54C56.75 158.42 54.31 162.69 55.97 165.64C61.55 165 67.2 163.22 72.72 162.52C77.09 161.21 81.93 160.93 86.21 159.67V159.68Z" fill="#CDA349"/>
<path d="M91.7693 146.88C91.7693 146.88 91.7693 146.85 91.7693 146.84C93.0093 146.78 94.2893 147.04 95.4693 146.59C91.7993 140.05 87.9393 133.5 85.7193 126.2C83.2993 118.77 83.9993 119.84 76.3293 121.12C65.7693 121.45 54.0993 121.3 44.2393 123.34C45.6593 132.92 48.3193 146.62 57.9293 151.23C69.2193 150.87 80.4593 147.63 91.7593 146.88H91.7693Z" fill="#CDA349"/>
<path d="M99.63 45.5296C106.72 47.0896 113.73 48.2196 121.17 48.2196C124.49 48.2196 115.77 42.9496 114.72 42.3696C111.8 41.0096 108.13 42.1796 104.92 41.8096V41.8396C99.13 41.6196 86.11 41.8596 99.63 45.5196V45.5296Z" fill="#CDA349"/>
<path d="M66.7995 54.6395C57.3795 54.4895 49.0895 49.0895 56.2795 62.7095C62.1395 64.7895 69.0195 63.1795 75.2395 63.6595V63.7595C80.6195 63.7595 85.9995 63.7795 91.3795 63.7595C93.7495 63.8095 92.1795 59.4895 92.7495 57.9795C84.4195 55.7995 75.4695 55.6595 66.7995 54.6495V54.6395Z" fill="#CDA349"/>
<path d="M54.2599 48.5603C57.8999 48.6503 61.2699 50.1203 64.8699 50.1103C73.3799 51.2003 81.5299 53.1303 90.0299 53.8403V53.8703C93.1599 54.4803 95.3899 52.2903 96.8999 49.8303C98.1799 47.2803 90.5699 46.4403 89.0099 45.5803C82.9399 45.1803 79.8099 39.6603 76.6899 35.1003C73.7399 31.8903 59.7099 41.7803 56.8699 44.6103C56.1199 45.4703 51.8299 47.7703 54.2599 48.5603Z" fill="#CDA349"/>
<path d="M120.52 168.77V168.79C113.75 168.26 102.72 171.48 96.3899 172.78C92.9599 173.48 116.91 175.91 123.37 173.21C127.37 171.54 131.71 169.06 120.52 168.77Z" fill="#CDA349"/>
<path d="M106.509 166.53C103.339 164.38 101.229 161.02 97.6091 159.54C93.5291 161.82 88.8191 162.71 84.4491 163.71C78.6391 165.6 72.7191 166.57 66.8291 168.01C64.3991 168.97 61.6391 169.16 59.3291 169.98C61.3891 175.86 69.2191 180.01 74.9191 181.79C82.0791 186.75 82.3691 172.98 90.1791 171.75C95.4391 170.17 101.029 169.04 106.399 167.26C106.819 167.09 106.919 166.85 106.519 166.53H106.509Z" fill="#CDA349"/>
<path d="M135.259 167.979C131.899 170.049 122.659 174.959 125.739 179.699C126.679 180.709 127.229 183.389 129.029 182.529C133.619 181.039 137.839 178.909 140.389 174.479C141.209 173.249 136.649 167.899 135.269 167.979H135.259Z" fill="#CDA349"/>
<path d="M238.46 71.4298C228.15 43.9798 203.27 22.8198 175.96 13.6898C174.82 12.7998 173.33 12.4498 172.05 12.0098C171.61 11.1098 170.35 11.8398 169.81 11.3098C166.55 9.89976 162.93 8.68976 159.39 8.27976C153.94 7.02976 147.22 4.87976 141.84 6.62976C209.07 31.7298 228.43 124.68 184.48 178.56C156.2 218.88 95.9799 216.73 153.24 216.45C164.55 216.15 173.23 217.39 181.23 215.01C207.4 207.24 228.93 184.96 238.61 159.31C249.98 132.25 249.15 99.0998 238.46 71.4198V71.4298Z" fill="url(#paint0_linear_608_73)"/>
<path d="M193.949 58.7995C158.209 -13.1405 61.7693 -19.5105 18.8993 49.1995C-25.9907 116.379 20.5893 216.459 103.589 216.369C181.909 216.549 229.269 126.299 193.939 58.7995H193.949ZM164.179 122.889C161.459 122.579 162.619 124.549 162.079 129.399C161.939 130.629 162.079 130.639 160.789 134.919C158.829 141.409 155.969 148.869 150.409 153.679C149.709 156.219 152.959 159.069 153.899 161.609C159.569 169.569 146.239 171.929 142.619 177.159C139.089 181.639 134.059 184.219 128.829 186.069C125.359 186.859 123.309 181.659 121.989 179.139C118.769 176.119 112.189 178.639 107.839 177.789C101.689 176.879 95.4293 176.499 89.1693 176.329C85.2993 178.039 84.7593 184.679 80.1293 185.829C70.3793 185.669 60.5993 179.489 54.6993 171.369C50.6793 167.209 52.5093 160.729 54.1293 156.039C55.9293 152.549 49.4793 149.859 48.1393 146.669C44.2193 139.929 42.0893 132.399 41.0793 124.819C41.0093 123.639 40.7593 123.419 39.6193 123.429C26.2793 125.019 32.6493 118.939 31.2993 108.239H31.2893C31.2893 103.759 31.2893 99.2695 31.2893 94.7895C31.1693 91.6495 36.3293 93.6895 38.3493 93.0895C42.6093 92.7395 40.2593 86.9595 41.8693 84.2295C43.3693 78.1295 47.1493 72.4195 51.1993 67.4495C58.4993 55.8495 31.3393 51.0095 71.2093 31.9895C79.1093 26.6895 80.0993 37.1195 85.0693 40.6795C86.5293 40.9895 88.1593 40.7895 89.7493 40.4395C92.2593 39.8895 94.8193 39.5595 97.3893 39.5395C99.1693 39.5295 100.959 39.4895 102.709 39.2095C103.949 39.0095 105.199 38.8695 106.449 38.8595C112.409 38.8195 112.399 38.5995 117.399 33.6095C121.549 27.5795 127.989 33.3395 132.819 35.5995C137.479 37.3995 141.369 41.4195 145.199 44.6095C147.359 46.5195 151.209 48.1595 151.989 50.8495C143.629 68.0395 144.799 55.2095 156.589 72.9895C168.389 93.1295 155.259 92.8195 172.929 91.5395C174.099 91.5095 174.249 91.6695 174.269 92.8695C174.759 102.339 175.059 111.789 174.969 121.279C176.209 123.629 165.659 123.049 164.199 122.889H164.179Z" fill="url(#paint1_linear_608_73)"/>
<path d="M207.72 28.1298C193.02 17.3198 176.54 10.3998 158.96 6.27981C152.78 4.83981 143.49 3.59981 137.29 2.97981C130.6 2.30981 128 1.67981 121.42 0.889811C61.0597 -6.32019 12.0297 31.0498 2.47973 85.2698C-7.84027 132.75 14.7197 185.84 58.8697 207.52C82.5097 220.48 110.09 217.66 136.34 217.81C150.87 216.92 166.14 219.59 180.4 216.83C182.64 216.4 184.82 215.71 186.91 214.78C209.57 204.76 228.75 186.68 239.04 164.05C257.59 118.75 249.31 58.0998 207.72 28.1298ZM103.6 216.37C20.5997 216.46 -25.9903 116.38 18.9097 49.1998C61.7697 -19.5102 158.21 -13.1402 193.95 58.7998C229.28 126.3 181.92 216.55 103.6 216.37ZM238.62 159.32C228.94 184.96 207.41 207.24 181.24 215.02C173.23 217.4 164.56 216.16 153.25 216.45C95.9797 216.74 156.21 218.88 184.49 178.57C228.44 124.69 209.08 31.7398 141.85 6.63981C147.23 4.88981 153.95 7.03981 159.4 8.28981C162.95 8.69981 166.56 9.90981 169.82 11.3198C170.36 11.8398 171.62 11.1198 172.06 12.0198C173.34 12.4598 174.83 12.8098 175.97 13.6998C203.28 22.8298 228.16 43.9998 238.47 71.4398C249.16 99.1198 249.99 132.27 238.62 159.33V159.32Z" fill="#261B09"/>
<path d="M174.949 121.28C175.039 111.79 174.749 102.33 174.249 92.8702C174.219 91.6702 174.069 91.5102 172.909 91.5402C155.239 92.8302 168.369 93.1302 156.569 72.9902C144.779 55.2102 143.609 68.0402 151.969 50.8502C151.189 48.1602 147.339 46.5202 145.179 44.6102C141.349 41.4202 137.459 37.4002 132.799 35.6002C127.979 33.3502 121.529 27.5802 117.379 33.6102C112.389 38.5902 112.389 38.8202 106.429 38.8602C105.179 38.8602 103.929 39.0102 102.689 39.2102C100.939 39.4902 99.1593 39.5202 97.3693 39.5402C94.7993 39.5602 92.2393 39.8902 89.7293 40.4402C88.1393 40.7902 86.5093 41.0002 85.0493 40.6802C80.0793 37.1202 79.0893 26.6802 71.1893 31.9902C31.3193 51.0102 58.4793 55.8502 51.1793 67.4502C47.1193 72.4302 43.3493 78.1302 41.8493 84.2302C40.2393 86.9602 42.5893 92.7402 38.3293 93.0902C36.3093 93.6902 31.1493 91.6502 31.2693 94.7902C31.2693 99.2702 31.2693 103.76 31.2693 108.24H31.2793C32.6293 118.94 26.2593 125.02 39.5993 123.43C40.7393 123.43 40.9993 123.64 41.0593 124.82C42.0693 132.4 44.1893 139.93 48.1193 146.67C49.4493 149.86 55.9093 152.55 54.1093 156.04C52.4893 160.73 50.6593 167.21 54.6793 171.37C60.5693 179.48 70.3593 185.67 80.1093 185.83C84.7393 184.68 85.2793 178.04 89.1493 176.33C95.4093 176.5 101.669 176.88 107.819 177.79C112.169 178.64 118.749 176.12 121.969 179.14C123.289 181.66 125.339 186.86 128.809 186.07C134.039 184.23 139.069 181.64 142.599 177.16C146.209 171.92 159.549 169.57 153.879 161.61C152.939 159.07 149.689 156.22 150.389 153.68C155.949 148.87 158.809 141.41 160.769 134.92C162.059 130.64 161.919 130.63 162.059 129.4C162.599 124.55 161.439 122.58 164.159 122.89C165.619 123.06 176.169 123.63 174.929 121.28H174.949ZM122.309 34.3302C125.719 35.3202 129.099 36.8102 132.089 39.0102C134.009 41.2302 129.359 45.7002 127.039 45.5602C123.549 44.9002 120.619 41.9202 117.879 39.7602C114.989 37.9502 120.929 35.5602 122.309 34.3302ZM104.929 41.8402V41.8102C108.139 42.1802 111.799 41.0102 114.729 42.3702C115.779 42.9402 124.499 48.2202 121.179 48.2202C113.739 48.2202 106.729 47.0902 99.6393 45.5302C86.1293 41.8702 99.1393 41.6202 104.929 41.8502V41.8402ZM56.8693 44.6102C59.7093 41.7802 73.7393 31.8902 76.6893 35.1002C79.8093 39.6602 82.9393 45.1802 89.0093 45.5802C90.5693 46.4302 98.1793 47.2802 96.8993 49.8302C95.3793 52.2902 93.1493 54.4702 90.0293 53.8702V53.8402C81.5293 53.1302 73.3793 51.2002 64.8693 50.1102C61.2793 50.1202 57.8993 48.6502 54.2593 48.5602C51.8293 47.7702 56.1193 45.4702 56.8693 44.6102ZM91.3893 63.7502C86.0093 63.7702 80.6293 63.7502 75.2493 63.7502V63.6502C69.0293 63.1702 62.1393 64.7902 56.2893 62.7002C49.0993 49.0702 57.3893 54.4802 66.8093 54.6302C75.4793 55.6402 84.4293 55.7902 92.7593 57.9602C92.1893 59.4702 93.7593 63.7902 91.3893 63.7402V63.7502ZM55.6193 67.5902C64.4393 67.1502 73.5693 68.0002 82.3693 68.7502C84.8393 69.9602 92.7793 66.8202 91.4793 71.1502C89.0493 76.4602 87.2193 82.2102 84.3193 87.2902C83.6093 90.1102 82.4493 92.8102 79.2493 92.5002C67.8893 89.8402 55.1893 93.7102 44.2193 89.8902C44.5993 81.5302 49.9893 73.6502 55.6093 67.5902H55.6193ZM34.3393 97.6902C38.3193 94.0302 48.8993 97.2802 54.7093 96.2302V96.2502C77.8293 96.1102 75.3793 92.7502 75.1493 116.29C72.8893 120.11 54.5193 117.33 49.0093 119.52C26.9493 121 36.1993 119.15 34.3393 97.6902ZM44.2493 123.32C54.0993 121.28 65.7793 121.43 76.3393 121.1C84.0093 119.82 83.3093 118.76 85.7293 126.18C87.9493 133.48 91.8093 140.03 95.4793 146.57C94.2993 147.02 93.0093 146.77 91.7793 146.82C91.7793 146.83 91.7793 146.85 91.7793 146.86C80.4693 147.61 69.2293 150.84 57.9493 151.21C48.3393 146.6 45.6793 132.89 44.2593 123.32H44.2493ZM55.9793 165.64C54.3193 162.69 56.7593 158.42 57.8693 155.54C58.7593 153.66 61.4893 154.9 63.0593 153.91C67.0693 153.32 70.9793 152.55 75.0593 152.13C81.6193 151.14 88.0793 149.86 94.7293 149.09C94.7293 149.11 94.7293 149.12 94.7293 149.14C99.4593 147.96 99.5893 154.53 97.0393 156.88C93.8293 158.72 89.7193 159 86.2193 159.68C81.9393 160.94 77.0993 161.22 72.7293 162.53C67.2093 163.23 61.5593 165.01 55.9793 165.65V165.64ZM74.9293 181.78C69.2393 179.99 61.3993 175.85 59.3393 169.97C61.6493 169.16 64.4093 168.96 66.8393 168C72.7293 166.56 78.6493 165.59 84.4593 163.7C88.8293 162.69 93.5393 161.81 97.6193 159.53C101.239 161.02 103.339 164.37 106.519 166.52C106.919 166.84 106.829 167.08 106.399 167.25C101.029 169.03 95.4393 170.16 90.1793 171.74C82.3693 172.97 82.0893 186.74 74.9193 181.78H74.9293ZM96.3893 172.77C102.729 171.47 113.749 168.26 120.519 168.78V168.76C131.709 169.05 127.369 171.53 123.369 173.2C116.899 175.9 92.9593 173.47 96.3893 172.77ZM140.389 174.47C137.839 178.9 133.629 181.03 129.029 182.52C127.229 183.38 126.689 180.7 125.739 179.69C122.659 174.95 131.899 170.05 135.259 167.97C136.649 167.88 141.199 173.24 140.379 174.47H140.389ZM161.839 121.15C160.659 121.15 160.689 121.19 160.639 122.33C159.609 132.59 157.119 142.92 149.399 150.37C145.269 153 149.349 157.57 150.769 160.76C151.619 163.38 154.739 165.41 151.039 167.39C139.319 175.29 144.149 168.57 136.169 165.03C128.769 166.26 120.919 165.63 113.469 167.04C108.149 166.08 104.569 161.34 100.309 158.2C99.1893 155.29 100.589 151.77 99.2793 148.69C96.4093 142.13 91.3893 136.03 88.8593 129.22C88.6793 127.53 87.4193 126.11 87.2093 124.3C87.0693 123.69 87.2693 122.98 86.5893 122.57C86.1593 120.92 86.1693 117.69 84.0793 117.41C82.2193 116.84 77.3293 118.79 77.2993 116.17C77.0193 112.97 77.2693 109.91 76.7593 106.72C74.7593 82.3802 82.6093 105.35 87.9093 86.7002C89.3593 82.6302 91.3293 78.5802 92.8293 74.4002C93.5793 72.6602 94.4393 71.0702 94.8793 69.1502C97.0093 65.5602 95.3593 61.0802 95.0893 57.0502C95.1793 53.9102 98.5793 52.7902 99.4493 49.9502C100.289 47.3702 102.519 48.2902 104.459 48.4902C112.559 48.7502 121.959 50.7502 129.659 48.2602C132.419 47.2602 134.119 39.8602 137.139 41.3502C140.789 44.2002 144.289 46.8302 147.799 49.8202C150.209 52.8702 145.589 56.9802 144.039 59.6202C143.929 60.7302 142.289 61.7902 143.949 62.8802C153.709 70.1502 158.739 81.4002 160.659 93.0802C160.709 93.8102 161.439 94.6302 162.179 94.6402C177.389 92.9902 171.629 94.9802 172.709 107.61C172.719 107.61 172.739 107.61 172.749 107.61C172.309 119.54 176.219 122.32 161.839 121.16V121.15Z" fill="#261B09"/>
<path d="M294.243 26.1441V72.9805H284.34V26.1441H294.243ZM311.949 52.6725V72.9805H302.207V37.8532H311.492V44.0508H311.904C312.681 42.0078 313.985 40.3917 315.814 39.2025C317.644 37.998 319.862 37.3958 322.469 37.3958C324.909 37.3958 327.035 37.9294 328.85 38.9967C330.664 40.0639 332.074 41.5885 333.081 43.5705C334.087 45.5373 334.59 47.8852 334.59 50.6143V72.9805H324.848V52.3523C324.863 50.2026 324.314 48.5255 323.201 47.3211C322.088 46.1014 320.556 45.4915 318.604 45.4915C317.293 45.4915 316.134 45.7736 315.128 46.3377C314.137 46.9018 313.36 47.7251 312.795 48.8076C312.247 49.8748 311.965 51.1631 311.949 52.6725ZM358.094 86.885C354.938 86.885 352.232 86.4505 349.975 85.5815C347.734 84.7277 345.95 83.5613 344.624 82.0825C343.297 80.6036 342.436 78.9417 342.04 77.0969L351.05 75.8849C351.325 76.5862 351.759 77.2418 352.354 77.8516C352.948 78.4615 353.733 78.9494 354.709 79.3153C355.7 79.6964 356.905 79.887 358.323 79.887C360.442 79.887 362.187 79.3686 363.56 78.3319C364.947 77.3104 365.641 75.5952 365.641 73.1863V66.76H365.229C364.802 67.7358 364.162 68.6582 363.308 69.5272C362.454 70.3962 361.357 71.1052 360.015 71.654C358.673 72.2029 357.072 72.4773 355.212 72.4773C352.575 72.4773 350.173 71.8675 348.008 70.6478C345.859 69.4129 344.144 67.5299 342.863 64.9991C341.597 62.453 340.965 59.236 340.965 55.3482C340.965 51.369 341.613 48.0453 342.909 45.3772C344.205 42.7091 345.927 40.7119 348.077 39.3854C350.242 38.059 352.613 37.3958 355.189 37.3958C357.156 37.3958 358.803 37.7312 360.129 38.4021C361.456 39.0576 362.523 39.8809 363.331 40.8719C364.154 41.8477 364.787 42.8082 365.229 43.7535H365.595V37.8532H375.269V73.3235C375.269 76.3118 374.537 78.8121 373.073 80.8246C371.61 82.8371 369.582 84.3465 366.99 85.3528C364.413 86.3743 361.448 86.885 358.094 86.885ZM358.3 65.1592C359.87 65.1592 361.196 64.7704 362.279 63.9928C363.377 63.2 364.215 62.0718 364.795 60.6082C365.389 59.1293 365.686 57.3607 365.686 55.3025C365.686 53.2442 365.397 51.4604 364.817 49.9511C364.238 48.4264 363.4 47.2449 362.302 46.4063C361.204 45.5678 359.87 45.1485 358.3 45.1485C356.699 45.1485 355.35 45.583 354.252 46.4521C353.154 47.3058 352.323 48.4951 351.759 50.0197C351.195 51.5443 350.913 53.3052 350.913 55.3025C350.913 57.3302 351.195 59.0835 351.759 60.5624C352.338 62.0261 353.169 63.1619 354.252 63.97C355.35 64.7628 356.699 65.1592 358.3 65.1592ZM399.03 73.6665C395.417 73.6665 392.306 72.9347 389.699 71.4711C387.107 69.9922 385.11 67.9035 383.707 65.2049C382.305 62.4911 381.603 59.2817 381.603 55.5769C381.603 51.9636 382.305 48.7924 383.707 46.0633C385.11 43.3342 387.084 41.2074 389.631 39.6827C392.192 38.1581 395.195 37.3958 398.641 37.3958C400.959 37.3958 403.116 37.7693 405.113 38.5164C407.126 39.2482 408.879 40.3536 410.373 41.8325C411.882 43.3113 413.056 45.1714 413.895 47.4126C414.733 49.6385 415.153 52.2456 415.153 55.2339V57.9096H385.491V51.8721H405.982C405.982 50.4694 405.677 49.2269 405.067 48.1444C404.458 47.0619 403.611 46.2157 402.529 45.6059C401.462 44.9808 400.219 44.6683 398.801 44.6683C397.322 44.6683 396.011 45.0113 394.868 45.6974C393.739 46.3682 392.855 47.2754 392.215 48.4188C391.575 49.547 391.247 50.8049 391.231 52.1923V57.9325C391.231 59.6705 391.552 61.1723 392.192 62.4377C392.848 63.7031 393.77 64.6789 394.959 65.365C396.148 66.0511 397.559 66.3941 399.19 66.3941C400.272 66.3941 401.263 66.2416 402.163 65.9367C403.063 65.6318 403.832 65.1744 404.473 64.5646C405.113 63.9547 405.601 63.2076 405.936 62.3234L414.947 62.918C414.49 65.0829 413.552 66.9735 412.134 68.5896C410.731 70.1904 408.917 71.4406 406.691 72.3401C404.48 73.2244 401.927 73.6665 399.03 73.6665ZM431.253 52.6725V72.9805H421.51V37.8532H430.795V44.0508H431.207C431.985 42.0078 433.288 40.3917 435.118 39.2025C436.947 37.998 439.166 37.3958 441.773 37.3958C444.212 37.3958 446.339 37.9294 448.153 38.9967C449.967 40.0639 451.378 41.5885 452.384 43.5705C453.39 45.5373 453.893 47.8852 453.893 50.6143V72.9805H444.151V52.3523C444.166 50.2026 443.617 48.5255 442.504 47.3211C441.391 46.1014 439.859 45.4915 437.908 45.4915C436.597 45.4915 435.438 45.7736 434.432 46.3377C433.441 46.9018 432.663 47.7251 432.099 48.8076C431.55 49.8748 431.268 51.1631 431.253 52.6725ZM461.572 37.8532H471.314V74.7185C471.314 77.4324 470.78 79.6278 469.713 81.3049C468.646 82.982 467.114 84.2093 465.117 84.9869C463.135 85.7644 460.764 86.1532 458.004 86.1532C457.669 86.1532 457.349 86.1456 457.044 86.1303C456.723 86.1303 456.388 86.1227 456.037 86.1075V78.492C456.297 78.5072 456.525 78.5148 456.723 78.5148C456.906 78.5301 457.105 78.5377 457.318 78.5377C458.888 78.5377 459.986 78.2023 460.611 77.5315C461.252 76.8759 461.572 75.8849 461.572 74.5585V37.8532ZM466.42 33.3251C464.987 33.3251 463.752 32.8448 462.715 31.8843C461.678 30.9085 461.16 29.7422 461.16 28.3853C461.16 27.0436 461.678 25.8925 462.715 24.932C463.752 23.9563 464.987 23.4684 466.42 23.4684C467.884 23.4684 469.126 23.9563 470.148 24.932C471.185 25.8925 471.703 27.0436 471.703 28.3853C471.703 29.7422 471.185 30.9085 470.148 31.8843C469.126 32.8448 467.884 33.3251 466.42 33.3251ZM494.99 73.6665C491.437 73.6665 488.365 72.9119 485.773 71.4025C483.197 69.8779 481.207 67.7586 479.804 65.0448C478.402 62.3157 477.7 59.1522 477.7 55.554C477.7 51.9254 478.402 48.7542 479.804 46.0404C481.207 43.3113 483.197 41.1921 485.773 39.6827C488.365 38.1581 491.437 37.3958 494.99 37.3958C498.542 37.3958 501.606 38.1581 504.183 39.6827C506.775 41.1921 508.772 43.3113 510.175 46.0404C511.577 48.7542 512.279 51.9254 512.279 55.554C512.279 59.1522 511.577 62.3157 510.175 65.0448C508.772 67.7586 506.775 69.8779 504.183 71.4025C501.606 72.9119 498.542 73.6665 494.99 73.6665ZM495.035 66.1197C496.651 66.1197 498.001 65.6623 499.083 64.7475C500.166 63.8175 500.981 62.5521 501.53 60.9512C502.094 59.3504 502.376 57.5284 502.376 55.4854C502.376 53.4424 502.094 51.6205 501.53 50.0197C500.981 48.4188 500.166 47.1534 499.083 46.2234C498.001 45.2933 496.651 44.8283 495.035 44.8283C493.404 44.8283 492.032 45.2933 490.919 46.2234C489.821 47.1534 488.99 48.4188 488.426 50.0197C487.877 51.6205 487.603 53.4424 487.603 55.4854C487.603 57.5284 487.877 59.3504 488.426 60.9512C488.99 62.5521 489.821 63.8175 490.919 64.7475C492.032 65.6623 493.404 66.1197 495.035 66.1197ZM488.014 33.0506C486.703 33.0506 485.575 32.5933 484.63 31.6785C483.684 30.7485 483.212 29.6507 483.212 28.3853C483.212 27.0894 483.684 25.9916 484.63 25.0921C485.575 24.1926 486.703 23.7428 488.014 23.7428C489.341 23.7428 490.461 24.1926 491.376 25.0921C492.306 25.9916 492.771 27.0894 492.771 28.3853C492.771 29.6507 492.306 30.7485 491.376 31.6785C490.461 32.5933 489.341 33.0506 488.014 33.0506ZM502.01 33.0506C500.699 33.0506 499.571 32.5933 498.626 31.6785C497.681 30.7485 497.208 29.6507 497.208 28.3853C497.208 27.0894 497.681 25.9916 498.626 25.0921C499.571 24.1926 500.699 23.7428 502.01 23.7428C503.337 23.7428 504.457 24.1926 505.372 25.0921C506.302 25.9916 506.767 27.0894 506.767 28.3853C506.767 29.6507 506.302 30.7485 505.372 31.6785C504.457 32.5933 503.337 33.0506 502.01 33.0506ZM518.614 72.9805V37.8532H528.059V43.9822H528.425C529.065 41.802 530.14 40.1554 531.649 39.0424C533.158 37.9142 534.897 37.3501 536.863 37.3501C537.351 37.3501 537.877 37.3806 538.441 37.4415C539.005 37.5025 539.501 37.5864 539.928 37.6931V46.3377C539.47 46.2005 538.838 46.0785 538.03 45.9718C537.222 45.8651 536.482 45.8117 535.811 45.8117C534.378 45.8117 533.097 46.1243 531.969 46.7494C530.856 47.3592 529.972 48.213 529.316 49.3107C528.676 50.4085 528.356 51.6739 528.356 53.107V72.9805H518.614ZM574.192 47.87L565.273 48.4188C565.12 47.6565 564.792 46.9704 564.289 46.3606C563.786 45.7355 563.123 45.24 562.3 44.8741C561.492 44.4929 560.524 44.3023 559.395 44.3023C557.886 44.3023 556.613 44.6225 555.576 45.2629C554.539 45.8879 554.021 46.7265 554.021 47.7785C554.021 48.617 554.356 49.326 555.027 49.9053C555.698 50.4847 556.849 50.9497 558.481 51.3004L564.838 52.581C568.253 53.2824 570.799 54.4106 572.477 55.9657C574.154 57.5208 574.992 59.5638 574.992 62.0947C574.992 64.3969 574.314 66.417 572.957 68.155C571.615 69.8931 569.77 71.25 567.422 72.2258C565.09 73.1863 562.399 73.6665 559.35 73.6665C554.699 73.6665 550.995 72.6984 548.235 70.7621C545.491 68.8106 543.882 66.1578 543.41 62.8036L552.992 62.3005C553.282 63.7184 553.983 64.8009 555.096 65.5479C556.209 66.2798 557.634 66.6457 559.372 66.6457C561.08 66.6457 562.452 66.3179 563.489 65.6623C564.541 64.9915 565.075 64.13 565.09 63.0781C565.075 62.1938 564.701 61.4696 563.969 60.9055C563.237 60.3261 562.109 59.884 560.584 59.579L554.501 58.367C551.071 57.6809 548.517 56.4917 546.84 54.7994C545.178 53.107 544.347 50.9497 544.347 48.3273C544.347 46.0709 544.957 44.127 546.177 42.4957C547.412 40.8643 549.142 39.6065 551.368 38.7222C553.609 37.8379 556.232 37.3958 559.235 37.3958C563.672 37.3958 567.163 38.3335 569.709 40.2087C572.271 42.084 573.765 44.6378 574.192 47.87ZM600.017 37.8532V45.1714H578.337V37.8532H600.017ZM583.299 72.9805V35.3147C583.299 32.7686 583.795 30.657 584.786 28.9799C585.792 27.3028 587.164 26.045 588.902 25.2065C590.64 24.3679 592.615 23.9486 594.826 23.9486C596.32 23.9486 597.684 24.063 598.919 24.2917C600.169 24.5204 601.099 24.7262 601.709 24.9092L599.971 32.2273C599.59 32.1054 599.117 31.991 598.553 31.8843C598.004 31.7776 597.44 31.7242 596.861 31.7242C595.428 31.7242 594.429 32.0596 593.865 32.7305C593.301 33.3861 593.019 34.3085 593.019 35.4977V72.9805H583.299ZM605.969 72.9805V37.8532H615.711V72.9805H605.969ZM610.863 33.3251C609.414 33.3251 608.172 32.8448 607.135 31.8843C606.113 30.9085 605.603 29.7422 605.603 28.3853C605.603 27.0436 606.113 25.8925 607.135 24.932C608.172 23.9563 609.414 23.4684 610.863 23.4684C612.311 23.4684 613.546 23.9563 614.568 24.932C615.604 25.8925 616.123 27.0436 616.123 28.3853C616.123 29.7422 615.604 30.9085 614.568 31.8843C613.546 32.8448 612.311 33.3251 610.863 33.3251ZM623.515 72.9805V37.8532H632.96V43.9822H633.326C633.966 41.802 635.041 40.1554 636.551 39.0424C638.06 37.9142 639.798 37.3501 641.765 37.3501C642.253 37.3501 642.779 37.3806 643.343 37.4415C643.907 37.5025 644.402 37.5864 644.829 37.6931V46.3377C644.372 46.2005 643.739 46.0785 642.931 45.9718C642.123 45.8651 641.384 45.8117 640.713 45.8117C639.28 45.8117 637.999 46.1243 636.871 46.7494C635.758 47.3592 634.874 48.213 634.218 49.3107C633.578 50.4085 633.257 51.6739 633.257 53.107V72.9805H623.515ZM649.866 72.9805V37.8532H659.151V44.0508H659.563C660.295 41.9925 661.514 40.3688 663.222 39.1796C664.93 37.9904 666.973 37.3958 669.351 37.3958C671.76 37.3958 673.81 37.998 675.503 39.2025C677.195 40.3917 678.323 42.0078 678.887 44.0508H679.253C679.97 42.0383 681.266 40.4298 683.141 39.2254C685.032 38.0057 687.265 37.3958 689.842 37.3958C693.12 37.3958 695.78 38.4402 697.823 40.5289C699.882 42.6024 700.911 45.5449 700.911 49.3565V72.9805H691.191V51.2775C691.191 49.326 690.673 47.8623 689.636 46.8866C688.599 45.9108 687.303 45.4229 685.748 45.4229C683.98 45.4229 682.6 45.987 681.609 47.1153C680.618 48.2282 680.122 49.6995 680.122 51.529V72.9805H670.677V51.0717C670.677 49.3488 670.182 47.9767 669.191 46.9552C668.215 45.9337 666.927 45.4229 665.326 45.4229C664.243 45.4229 663.268 45.6974 662.399 46.2462C661.545 46.7799 660.866 47.5345 660.363 48.5103C659.86 49.4708 659.609 50.599 659.609 51.895V72.9805H649.866ZM718.623 73.6437C716.382 73.6437 714.384 73.2549 712.631 72.4773C710.878 71.6845 709.49 70.5182 708.469 68.9783C707.463 67.4232 706.96 65.487 706.96 63.1695C706.96 61.218 707.318 59.579 708.034 58.2526C708.751 56.9262 709.727 55.859 710.962 55.0509C712.197 54.2429 713.599 53.633 715.17 53.2214C716.755 52.8097 718.417 52.5201 720.155 52.3523C722.198 52.1389 723.845 51.9407 725.095 51.7577C726.345 51.5595 727.252 51.2699 727.816 50.8887C728.38 50.5076 728.663 49.9434 728.663 49.1964V49.0592C728.663 47.6108 728.205 46.4902 727.29 45.6974C726.391 44.9046 725.11 44.5082 723.448 44.5082C721.695 44.5082 720.3 44.8969 719.263 45.6745C718.226 46.4368 717.54 47.3973 717.205 48.556L708.194 47.8242C708.652 45.6897 709.551 43.845 710.893 42.2898C712.235 40.7195 713.965 39.515 716.084 38.6765C718.219 37.8227 720.689 37.3958 723.494 37.3958C725.446 37.3958 727.313 37.6245 729.097 38.0819C730.896 38.5393 732.489 39.2482 733.877 40.2087C735.279 41.1692 736.385 42.4042 737.193 43.9136C738.001 45.4077 738.405 47.1991 738.405 49.2879V72.9805H729.166V68.1093H728.891C728.327 69.207 727.572 70.1752 726.627 71.0137C725.682 71.837 724.546 72.485 723.22 72.9576C721.893 73.415 720.361 73.6437 718.623 73.6437ZM721.413 66.9201C722.846 66.9201 724.112 66.638 725.209 66.0739C726.307 65.4946 727.168 64.717 727.793 63.7413C728.419 62.7655 728.731 61.6602 728.731 60.4252V56.6975C728.426 56.8957 728.007 57.0787 727.473 57.2464C726.955 57.3988 726.368 57.5437 725.712 57.6809C725.057 57.8029 724.401 57.9172 723.746 58.0239C723.09 58.1154 722.495 58.1993 721.962 58.2755C720.818 58.4432 719.82 58.71 718.966 59.0759C718.112 59.4418 717.449 59.9373 716.976 60.5624C716.504 61.1723 716.267 61.9346 716.267 62.8494C716.267 64.1758 716.748 65.1897 717.708 65.891C718.684 66.5771 719.919 66.9201 721.413 66.9201ZM755.706 52.6725V72.9805H745.963V37.8532H755.248V44.0508H755.66C756.437 42.0078 757.741 40.3917 759.57 39.2025C761.4 37.998 763.618 37.3958 766.225 37.3958C768.665 37.3958 770.792 37.9294 772.606 38.9967C774.42 40.0639 775.831 41.5885 776.837 43.5705C777.843 45.5373 778.346 47.8852 778.346 50.6143V72.9805H768.604V52.3523C768.619 50.2026 768.07 48.5255 766.957 47.3211C765.844 46.1014 764.312 45.4915 762.36 45.4915C761.049 45.4915 759.891 45.7736 758.884 46.3377C757.893 46.9018 757.116 47.7251 756.552 48.8076C756.003 49.8748 755.721 51.1631 755.706 52.6725Z" fill="white"/>
<path d="M282.224 176.98V96.9659H299.141V129.98H333.483V96.9659H350.361V176.98H333.483V143.928H299.141V176.98H282.224ZM364.309 176.98V96.9659H418.225V110.914H381.226V129.98H415.451V143.928H381.226V163.033H418.381V176.98H364.309ZM431.675 176.98V96.9659H448.592V163.033H482.895V176.98H431.675ZM494.098 176.98V96.9659H547.077V110.914H511.016V129.98H543.56V143.928H511.016V176.98H494.098ZM558.456 176.98V96.9659H612.372V110.914H575.373V129.98H609.598V143.928H575.373V163.033H612.528V176.98H558.456ZM625.822 176.98V96.9659H657.39C663.433 96.9659 668.59 98.0468 672.861 100.209C677.159 102.345 680.428 105.379 682.668 109.312C684.934 113.219 686.067 117.816 686.067 123.103C686.067 128.417 684.921 132.988 682.629 136.817C680.337 140.62 677.016 143.537 672.666 145.569C668.342 147.6 663.107 148.616 656.96 148.616H635.823V135.02H654.225C657.455 135.02 660.138 134.577 662.273 133.691C664.409 132.806 665.998 131.477 667.04 129.706C668.108 127.935 668.642 125.734 668.642 123.103C668.642 120.447 668.108 118.207 667.04 116.384C665.998 114.56 664.396 113.18 662.234 112.242C660.099 111.278 657.403 110.797 654.147 110.797H642.739V176.98H625.822ZM669.032 140.568L688.919 176.98H670.244L650.787 140.568H669.032ZM737.277 176.98H719.149L746.771 96.9659H768.572L796.155 176.98H778.027L757.984 115.25H757.359L737.277 176.98ZM736.144 145.529H778.965V158.735H736.144V145.529ZM805.786 176.98V96.9659H837.823C843.709 96.9659 848.619 97.8385 852.552 99.5836C856.485 101.329 859.441 103.751 861.421 106.851C863.401 109.924 864.39 113.466 864.39 117.477C864.39 120.603 863.765 123.351 862.515 125.721C861.265 128.065 859.546 129.993 857.358 131.503C855.196 132.988 852.721 134.043 849.935 134.668V135.449C852.982 135.58 855.834 136.439 858.491 138.028C861.174 139.617 863.348 141.844 865.015 144.709C866.682 147.548 867.516 150.934 867.516 154.867C867.516 159.113 866.461 162.902 864.351 166.236C862.267 169.544 859.181 172.162 855.092 174.089C851.002 176.017 845.962 176.98 839.972 176.98H805.786ZM822.703 163.15H836.495C841.209 163.15 844.647 162.251 846.809 160.454C848.971 158.631 850.052 156.208 850.052 153.187C850.052 150.973 849.518 149.02 848.45 147.327C847.382 145.634 845.858 144.305 843.879 143.342C841.925 142.378 839.594 141.896 836.885 141.896H822.703V163.15ZM822.703 130.449H835.244C837.562 130.449 839.62 130.045 841.417 129.237C843.241 128.404 844.673 127.232 845.715 125.721C846.783 124.21 847.317 122.4 847.317 120.29C847.317 117.399 846.288 115.068 844.23 113.297C842.199 111.526 839.308 110.64 835.557 110.64H822.703V130.449Z" fill="white"/>
</g>
<defs>
<linearGradient id="paint0_linear_608_73" x1="129.39" y1="111.27" x2="246.82" y2="111.27" gradientUnits="userSpaceOnUse">
<stop stop-color="#F4E09C"/>
<stop offset="1" stop-color="#C3922E"/>
</linearGradient>
<linearGradient id="paint1_linear_608_73" x1="199.949" y1="93.0295" x2="-1.94065" y2="125.939" gradientUnits="userSpaceOnUse">
<stop stop-color="#D9B560"/>
<stop offset="0.07" stop-color="#DBB965"/>
<stop offset="0.16" stop-color="#E2C475"/>
<stop offset="0.27" stop-color="#EED790"/>
<stop offset="0.3" stop-color="#F4E09C"/>
<stop offset="0.49" stop-color="#E8CD8A"/>
<stop offset="0.69" stop-color="#E0BF7C"/>
<stop offset="0.74" stop-color="#D8B368"/>
<stop offset="0.85" stop-color="#CCA148"/>
<stop offset="0.94" stop-color="#C59635"/>
<stop offset="1" stop-color="#C3922E"/>
</linearGradient>
<clipPath id="clip0_608_73">
<rect width="869" height="218" fill="white"/>
</clipPath>
</defs>
</svg>
